# xmcd
#
# Track frame offsets:
#	150
#	14721
#	33442
#	46089
#	63933
#	74567
#	90954
#	120438
#	143800
#	160001
#	178103
#
# Disc length: 2697 seconds
#
# Revision: 1
# Processed by: cddbd v1.4PL0 Copyright (c) Steve Scherf et al.
# Submitted via: EasyCDDAExtractor 5.0.6
#
DISCID=8c0a870b
DTITLE=Randy Meadows - Family Portrait
DYEAR=2002
DGENRE=Country
TTITLE0=Wichita lineman
TTITLE1=A cowboy comes home
TTITLE2=Jesus on the radio
TTITLE3=Sentimental day
TTITLE4=Jesse
TTITLE5=Shes got a way of talking
TTITLE6=Jazz
TTITLE7=Your cheating heart
TTITLE8=More jazz
TTITLE9=More of more jazz
TTITLE10=Take these chains from my heart/Jambalaya
EXTD=
EXTT0=
EXTT1=
EXTT2=
EXTT3=
EXTT4=
EXTT5=
EXTT6=
EXTT7=
EXTT8=
EXTT9=
EXTT10=
PLAYORDER=
